# xmcd
#
# Track frame offsets: 
#        150
#        18610
#        35287
#        52192
#        65555
#        82755
#        98482
#        111355
#        128185
#        144362
#
# Disc length: 2187 seconds
#
# Revision: 0
# Processed by: cddbd v1.5.2PL0 Copyright (c) Steve Scherf et al.
# Submitted via: ExactAudioCopy v0.95b3
#
DISCID=8108890a
DTITLE=Rita Coolidge  - Anytime...Anywhere  
DYEAR=1900
DGENRE=
TTITLE0=Higher and Higher
TTITLE1=The Way You Do the Things You Do
TTITLE2=We're All Alone
TTITLE3=I Feel the Burden
TTITLE4=I Don't Wanna Tal;k About It
TTITLE5=Words
TTITLE6=Good Times
TTITLE7=Who's To Bless, Who's To Blame
TTITLE8=Southern Lady
TTITLE9=The Hungry Years
EXTD=
EXTT0=
EXTT1=
EXTT2=
EXTT3=
EXTT4=
EXTT5=
EXTT6=
EXTT7=
EXTT8=
EXTT9=
PLAYORDER=
